<mxfile host="app.diagrams.net" modified="2023-10-09T11:17:30.769Z" agent="Mozilla/5.0 (Windows NT 10.0; Win64; x64) AppleWebKit/537.36 (KHTML, like Gecko) Chrome/117.0.0.0 Safari/537.36" etag="kYqKjebN8Eh0M9fRzgqV" version="21.7.4" type="device">
  <diagram name="1 oldal" id="itNzC_xZd75sdDu1z2X4">
    <mxGraphModel dx="2336" dy="2001" grid="1" gridSize="10" guides="1" tooltips="1" connect="1" arrows="1" fold="1" page="1" pageScale="1" pageWidth="827" pageHeight="1169" math="0" shadow="0">
      <root>
        <mxCell id="0" />
        <mxCell id="1" parent="0" />
        <mxCell id="jmd1gwVimG5P06i2sZjl-2" value="Író" style="rounded=0;whiteSpace=wrap;html=1;fillColor=#09555B;strokeColor=#BAC8D3;labelBackgroundColor=none;fontColor=#EEEEEE;" vertex="1" parent="1">
          <mxGeometry x="-210" y="210" width="120" height="60" as="geometry" />
        </mxCell>
        <mxCell id="jmd1gwVimG5P06i2sZjl-3" value="ID" style="ellipse;whiteSpace=wrap;html=1;strokeColor=#BAC8D3;fontColor=#EEEEEE;fillColor=#09555B;" vertex="1" parent="1">
          <mxGeometry x="-300" y="140" width="70" height="60" as="geometry" />
        </mxCell>
        <mxCell id="jmd1gwVimG5P06i2sZjl-4" value="Név" style="ellipse;whiteSpace=wrap;html=1;strokeColor=#BAC8D3;fontColor=#EEEEEE;fillColor=#09555B;" vertex="1" parent="1">
          <mxGeometry x="-290" y="300" width="60" height="40" as="geometry" />
        </mxCell>
        <mxCell id="jmd1gwVimG5P06i2sZjl-5" value="Cím" style="rounded=0;whiteSpace=wrap;html=1;strokeColor=#BAC8D3;fontColor=#EEEEEE;fillColor=#09555B;" vertex="1" parent="1">
          <mxGeometry x="340" y="200" width="120" height="60" as="geometry" />
        </mxCell>
        <mxCell id="jmd1gwVimG5P06i2sZjl-6" value="ID" style="ellipse;whiteSpace=wrap;html=1;strokeColor=#BAC8D3;fontColor=#EEEEEE;fillColor=#09555B;" vertex="1" parent="1">
          <mxGeometry x="190" y="198" width="110" height="60" as="geometry" />
        </mxCell>
        <mxCell id="jmd1gwVimG5P06i2sZjl-7" value="" style="endArrow=none;html=1;rounded=0;strokeColor=#0B4D6A;exitX=0;exitY=0.5;exitDx=0;exitDy=0;" edge="1" parent="1" source="jmd1gwVimG5P06i2sZjl-2">
          <mxGeometry width="50" height="50" relative="1" as="geometry">
            <mxPoint x="-310" y="250" as="sourcePoint" />
            <mxPoint x="-260" y="200" as="targetPoint" />
          </mxGeometry>
        </mxCell>
        <mxCell id="jmd1gwVimG5P06i2sZjl-8" value="" style="endArrow=none;html=1;rounded=0;strokeColor=#0B4D6A;exitX=0;exitY=0.5;exitDx=0;exitDy=0;entryX=0;entryY=0.5;entryDx=0;entryDy=0;" edge="1" parent="1" target="jmd1gwVimG5P06i2sZjl-2">
          <mxGeometry width="50" height="50" relative="1" as="geometry">
            <mxPoint x="-260" y="300" as="sourcePoint" />
            <mxPoint x="-310" y="260" as="targetPoint" />
          </mxGeometry>
        </mxCell>
        <mxCell id="jmd1gwVimG5P06i2sZjl-9" value="" style="endArrow=none;html=1;rounded=0;strokeColor=#0B4D6A;exitX=0;exitY=0.5;exitDx=0;exitDy=0;entryX=1;entryY=0.5;entryDx=0;entryDy=0;" edge="1" parent="1" source="jmd1gwVimG5P06i2sZjl-5" target="jmd1gwVimG5P06i2sZjl-6">
          <mxGeometry width="50" height="50" relative="1" as="geometry">
            <mxPoint x="280" y="240" as="sourcePoint" />
            <mxPoint x="330" y="190" as="targetPoint" />
          </mxGeometry>
        </mxCell>
        <mxCell id="jmd1gwVimG5P06i2sZjl-10" value="Betűmérete" style="ellipse;whiteSpace=wrap;html=1;strokeColor=#BAC8D3;fontColor=#EEEEEE;fillColor=#09555B;" vertex="1" parent="1">
          <mxGeometry x="270" y="290" width="70" height="40" as="geometry" />
        </mxCell>
        <mxCell id="jmd1gwVimG5P06i2sZjl-11" value="" style="endArrow=none;html=1;rounded=0;strokeColor=#0B4D6A;entryX=0;entryY=0.5;entryDx=0;entryDy=0;exitX=0.5;exitY=0;exitDx=0;exitDy=0;" edge="1" parent="1" source="jmd1gwVimG5P06i2sZjl-10" target="jmd1gwVimG5P06i2sZjl-5">
          <mxGeometry width="50" height="50" relative="1" as="geometry">
            <mxPoint x="330" y="270" as="sourcePoint" />
            <mxPoint x="380" y="220" as="targetPoint" />
          </mxGeometry>
        </mxCell>
        <mxCell id="jmd1gwVimG5P06i2sZjl-12" value="Kiadó" style="rounded=0;whiteSpace=wrap;html=1;strokeColor=#BAC8D3;fontColor=#EEEEEE;fillColor=#09555B;" vertex="1" parent="1">
          <mxGeometry x="615" y="210" width="120" height="60" as="geometry" />
        </mxCell>
        <mxCell id="jmd1gwVimG5P06i2sZjl-13" value="ID" style="ellipse;whiteSpace=wrap;html=1;strokeColor=#BAC8D3;fontColor=#EEEEEE;fillColor=#09555B;" vertex="1" parent="1">
          <mxGeometry x="490" y="178" width="70" height="60" as="geometry" />
        </mxCell>
        <mxCell id="jmd1gwVimG5P06i2sZjl-15" value="Név" style="ellipse;whiteSpace=wrap;html=1;strokeColor=#BAC8D3;fontColor=#EEEEEE;fillColor=#09555B;" vertex="1" parent="1">
          <mxGeometry x="530" y="280" width="80" height="40" as="geometry" />
        </mxCell>
        <mxCell id="jmd1gwVimG5P06i2sZjl-16" value="Üzlete" style="ellipse;whiteSpace=wrap;html=1;strokeColor=#BAC8D3;fontColor=#EEEEEE;fillColor=#09555B;" vertex="1" parent="1">
          <mxGeometry x="635" y="300" width="80" height="40" as="geometry" />
        </mxCell>
        <mxCell id="jmd1gwVimG5P06i2sZjl-17" value="" style="endArrow=none;html=1;rounded=0;strokeColor=#0B4D6A;entryX=0;entryY=0.5;entryDx=0;entryDy=0;exitX=0.5;exitY=0;exitDx=0;exitDy=0;" edge="1" parent="1">
          <mxGeometry width="50" height="50" relative="1" as="geometry">
            <mxPoint x="570" y="285" as="sourcePoint" />
            <mxPoint x="615" y="235" as="targetPoint" />
          </mxGeometry>
        </mxCell>
        <mxCell id="jmd1gwVimG5P06i2sZjl-18" value="" style="endArrow=none;html=1;rounded=0;strokeColor=#0B4D6A;entryX=1;entryY=0.5;entryDx=0;entryDy=0;exitX=0;exitY=0.5;exitDx=0;exitDy=0;" edge="1" parent="1" source="jmd1gwVimG5P06i2sZjl-12" target="jmd1gwVimG5P06i2sZjl-13">
          <mxGeometry width="50" height="50" relative="1" as="geometry">
            <mxPoint x="530" y="260" as="sourcePoint" />
            <mxPoint x="575" y="210" as="targetPoint" />
          </mxGeometry>
        </mxCell>
        <mxCell id="jmd1gwVimG5P06i2sZjl-19" value="" style="endArrow=none;html=1;rounded=0;strokeColor=#0B4D6A;entryX=0;entryY=0.5;entryDx=0;entryDy=0;exitX=0.5;exitY=0;exitDx=0;exitDy=0;" edge="1" parent="1" source="jmd1gwVimG5P06i2sZjl-16">
          <mxGeometry width="50" height="50" relative="1" as="geometry">
            <mxPoint x="635" y="320" as="sourcePoint" />
            <mxPoint x="680" y="270" as="targetPoint" />
          </mxGeometry>
        </mxCell>
        <mxCell id="jmd1gwVimG5P06i2sZjl-20" value="Kötés" style="rounded=0;whiteSpace=wrap;html=1;strokeColor=#BAC8D3;fontColor=#EEEEEE;fillColor=#09555B;" vertex="1" parent="1">
          <mxGeometry y="200" width="110" height="60" as="geometry" />
        </mxCell>
        <mxCell id="jmd1gwVimG5P06i2sZjl-22" value="ID" style="ellipse;whiteSpace=wrap;html=1;strokeColor=#BAC8D3;fontColor=#EEEEEE;fillColor=#09555B;" vertex="1" parent="1">
          <mxGeometry x="-70" y="290" width="90" height="60" as="geometry" />
        </mxCell>
        <mxCell id="jmd1gwVimG5P06i2sZjl-23" value="Fajta" style="ellipse;whiteSpace=wrap;html=1;strokeColor=#BAC8D3;fontColor=#EEEEEE;fillColor=#09555B;" vertex="1" parent="1">
          <mxGeometry x="80" y="290" width="100" height="60" as="geometry" />
        </mxCell>
        <mxCell id="jmd1gwVimG5P06i2sZjl-25" value="Könyv" style="rounded=0;whiteSpace=wrap;html=1;strokeColor=#BAC8D3;fontColor=#EEEEEE;fillColor=#09555B;" vertex="1" parent="1">
          <mxGeometry x="120" y="10" width="120" height="60" as="geometry" />
        </mxCell>
        <mxCell id="jmd1gwVimG5P06i2sZjl-26" value="ID" style="ellipse;whiteSpace=wrap;html=1;strokeColor=#BAC8D3;fontColor=#EEEEEE;fillColor=#09555B;" vertex="1" parent="1">
          <mxGeometry x="290" y="10" width="70" height="50" as="geometry" />
        </mxCell>
        <mxCell id="jmd1gwVimG5P06i2sZjl-27" value="" style="endArrow=none;html=1;rounded=0;strokeColor=#0B4D6A;exitX=1;exitY=0.5;exitDx=0;exitDy=0;" edge="1" parent="1" source="jmd1gwVimG5P06i2sZjl-25">
          <mxGeometry width="50" height="50" relative="1" as="geometry">
            <mxPoint x="240" y="80" as="sourcePoint" />
            <mxPoint x="290" y="30" as="targetPoint" />
          </mxGeometry>
        </mxCell>
        <mxCell id="jmd1gwVimG5P06i2sZjl-28" value="" style="endArrow=none;html=1;rounded=0;strokeColor=#0B4D6A;exitX=0.5;exitY=0;exitDx=0;exitDy=0;" edge="1" parent="1" source="jmd1gwVimG5P06i2sZjl-23">
          <mxGeometry width="50" height="50" relative="1" as="geometry">
            <mxPoint x="10" y="310" as="sourcePoint" />
            <mxPoint x="60" y="260" as="targetPoint" />
          </mxGeometry>
        </mxCell>
        <mxCell id="jmd1gwVimG5P06i2sZjl-29" value="" style="endArrow=none;html=1;rounded=0;strokeColor=#0B4D6A;exitX=0.5;exitY=0;exitDx=0;exitDy=0;" edge="1" parent="1" source="jmd1gwVimG5P06i2sZjl-22">
          <mxGeometry width="50" height="50" relative="1" as="geometry">
            <mxPoint x="10" y="310" as="sourcePoint" />
            <mxPoint x="60" y="260" as="targetPoint" />
          </mxGeometry>
        </mxCell>
        <mxCell id="jmd1gwVimG5P06i2sZjl-30" value="Írója" style="rhombus;whiteSpace=wrap;html=1;strokeColor=#BAC8D3;fontColor=#EEEEEE;fillColor=#09555B;" vertex="1" parent="1">
          <mxGeometry x="-160" y="40" width="110" height="80" as="geometry" />
        </mxCell>
        <mxCell id="jmd1gwVimG5P06i2sZjl-31" value="" style="endArrow=none;html=1;rounded=0;strokeColor=#0B4D6A;entryX=0;entryY=0.5;entryDx=0;entryDy=0;" edge="1" parent="1" target="jmd1gwVimG5P06i2sZjl-25">
          <mxGeometry width="50" height="50" relative="1" as="geometry">
            <mxPoint x="-50" y="80" as="sourcePoint" />
            <mxPoint y="30" as="targetPoint" />
          </mxGeometry>
        </mxCell>
        <mxCell id="jmd1gwVimG5P06i2sZjl-32" value="" style="endArrow=none;html=1;rounded=0;strokeColor=#0B4D6A;exitX=0.5;exitY=0;exitDx=0;exitDy=0;entryX=0.5;entryY=1;entryDx=0;entryDy=0;" edge="1" parent="1" source="jmd1gwVimG5P06i2sZjl-2" target="jmd1gwVimG5P06i2sZjl-30">
          <mxGeometry width="50" height="50" relative="1" as="geometry">
            <mxPoint x="-210" y="130" as="sourcePoint" />
            <mxPoint x="-160" y="80" as="targetPoint" />
          </mxGeometry>
        </mxCell>
        <mxCell id="jmd1gwVimG5P06i2sZjl-35" value="&lt;font color=&quot;#ee0505&quot;&gt;n&lt;/font&gt;" style="text;html=1;align=center;verticalAlign=middle;resizable=0;points=[];autosize=1;strokeColor=none;fillColor=none;fontColor=#EEEEEE;" vertex="1" parent="1">
          <mxGeometry x="-150" y="110" width="30" height="30" as="geometry" />
        </mxCell>
        <mxCell id="jmd1gwVimG5P06i2sZjl-36" value="mm&lt;font color=&quot;#ee280a&quot;&gt;m&lt;/font&gt;" style="text;html=1;align=center;verticalAlign=middle;resizable=0;points=[];autosize=1;strokeColor=none;fillColor=none;fontColor=#EEEEEE;" vertex="1" parent="1">
          <mxGeometry x="-70" y="40" width="50" height="30" as="geometry" />
        </mxCell>
        <mxCell id="jmd1gwVimG5P06i2sZjl-37" value="Kinézete" style="rhombus;whiteSpace=wrap;html=1;strokeColor=#BAC8D3;fontColor=#EEEEEE;fillColor=#09555B;" vertex="1" parent="1">
          <mxGeometry x="15" y="100" width="95" height="70" as="geometry" />
        </mxCell>
        <mxCell id="jmd1gwVimG5P06i2sZjl-38" value="" style="endArrow=none;html=1;rounded=0;strokeColor=#0B4D6A;entryX=0;entryY=1;entryDx=0;entryDy=0;exitX=0.5;exitY=0;exitDx=0;exitDy=0;" edge="1" parent="1" source="jmd1gwVimG5P06i2sZjl-37" target="jmd1gwVimG5P06i2sZjl-25">
          <mxGeometry width="50" height="50" relative="1" as="geometry">
            <mxPoint x="70" y="110" as="sourcePoint" />
            <mxPoint x="120" y="60" as="targetPoint" />
          </mxGeometry>
        </mxCell>
        <mxCell id="jmd1gwVimG5P06i2sZjl-39" value="" style="endArrow=none;html=1;rounded=0;strokeColor=#0B4D6A;exitX=0.5;exitY=0;exitDx=0;exitDy=0;entryX=0.5;entryY=1;entryDx=0;entryDy=0;" edge="1" parent="1" source="jmd1gwVimG5P06i2sZjl-20" target="jmd1gwVimG5P06i2sZjl-37">
          <mxGeometry width="50" height="50" relative="1" as="geometry">
            <mxPoint x="20" y="210" as="sourcePoint" />
            <mxPoint x="70" y="160" as="targetPoint" />
          </mxGeometry>
        </mxCell>
        <mxCell id="jmd1gwVimG5P06i2sZjl-40" value="&lt;font color=&quot;#ff0000&quot;&gt;1&lt;/font&gt;" style="text;html=1;align=center;verticalAlign=middle;resizable=0;points=[];autosize=1;strokeColor=none;fillColor=none;fontColor=#EEEEEE;" vertex="1" parent="1">
          <mxGeometry x="45" y="58" width="30" height="30" as="geometry" />
        </mxCell>
        <mxCell id="jmd1gwVimG5P06i2sZjl-41" value="&lt;font color=&quot;#ff0000&quot;&gt;n&lt;/font&gt;" style="text;html=1;align=center;verticalAlign=middle;resizable=0;points=[];autosize=1;strokeColor=none;fillColor=none;fontColor=#EEEEEE;" vertex="1" parent="1">
          <mxGeometry x="15" y="168" width="30" height="30" as="geometry" />
        </mxCell>
        <mxCell id="jmd1gwVimG5P06i2sZjl-42" value="Címe" style="rhombus;whiteSpace=wrap;html=1;strokeColor=#BAC8D3;fontColor=#EEEEEE;fillColor=#09555B;" vertex="1" parent="1">
          <mxGeometry x="270" y="102.5" width="105" height="65" as="geometry" />
        </mxCell>
        <mxCell id="jmd1gwVimG5P06i2sZjl-43" value="" style="endArrow=none;html=1;rounded=0;strokeColor=#0B4D6A;exitX=0;exitY=0.5;exitDx=0;exitDy=0;" edge="1" parent="1" source="jmd1gwVimG5P06i2sZjl-42">
          <mxGeometry width="50" height="50" relative="1" as="geometry">
            <mxPoint x="140" y="120" as="sourcePoint" />
            <mxPoint x="190" y="70" as="targetPoint" />
          </mxGeometry>
        </mxCell>
        <mxCell id="jmd1gwVimG5P06i2sZjl-44" value="" style="endArrow=none;html=1;rounded=0;strokeColor=#0B4D6A;entryX=0.5;entryY=1;entryDx=0;entryDy=0;exitX=0.5;exitY=0;exitDx=0;exitDy=0;" edge="1" parent="1" source="jmd1gwVimG5P06i2sZjl-5" target="jmd1gwVimG5P06i2sZjl-42">
          <mxGeometry width="50" height="50" relative="1" as="geometry">
            <mxPoint x="270" y="220" as="sourcePoint" />
            <mxPoint x="320" y="170" as="targetPoint" />
          </mxGeometry>
        </mxCell>
        <mxCell id="jmd1gwVimG5P06i2sZjl-45" value="&lt;font color=&quot;#ff0000&quot;&gt;1&lt;/font&gt;" style="text;html=1;align=center;verticalAlign=middle;resizable=0;points=[];autosize=1;strokeColor=none;fillColor=none;fontColor=#EEEEEE;" vertex="1" parent="1">
          <mxGeometry x="255" y="88" width="30" height="30" as="geometry" />
        </mxCell>
        <mxCell id="jmd1gwVimG5P06i2sZjl-46" value="&lt;font color=&quot;#fa0000&quot;&gt;n&lt;/font&gt;" style="text;html=1;align=center;verticalAlign=middle;resizable=0;points=[];autosize=1;strokeColor=none;fillColor=none;fontColor=#EEEEEE;" vertex="1" parent="1">
          <mxGeometry x="365" y="148" width="30" height="30" as="geometry" />
        </mxCell>
        <mxCell id="jmd1gwVimG5P06i2sZjl-47" value="Kiadója" style="rhombus;whiteSpace=wrap;html=1;strokeColor=#BAC8D3;fontColor=#EEEEEE;fillColor=#09555B;" vertex="1" parent="1">
          <mxGeometry x="455" y="70" width="135" height="68" as="geometry" />
        </mxCell>
        <mxCell id="jmd1gwVimG5P06i2sZjl-48" value="" style="endArrow=none;html=1;rounded=0;strokeColor=#0B4D6A;exitX=0;exitY=0.5;exitDx=0;exitDy=0;" edge="1" parent="1" source="jmd1gwVimG5P06i2sZjl-47">
          <mxGeometry width="50" height="50" relative="1" as="geometry">
            <mxPoint x="190" y="120" as="sourcePoint" />
            <mxPoint x="240" y="70" as="targetPoint" />
          </mxGeometry>
        </mxCell>
        <mxCell id="jmd1gwVimG5P06i2sZjl-49" value="" style="endArrow=none;html=1;rounded=0;strokeColor=#0B4D6A;entryX=0.713;entryY=0.786;entryDx=0;entryDy=0;entryPerimeter=0;exitX=0.5;exitY=0;exitDx=0;exitDy=0;" edge="1" parent="1" source="jmd1gwVimG5P06i2sZjl-12" target="jmd1gwVimG5P06i2sZjl-47">
          <mxGeometry width="50" height="50" relative="1" as="geometry">
            <mxPoint x="540" y="160" as="sourcePoint" />
            <mxPoint x="590" y="110" as="targetPoint" />
          </mxGeometry>
        </mxCell>
        <mxCell id="jmd1gwVimG5P06i2sZjl-50" value="1&lt;font color=&quot;#ee0707&quot;&gt;1&lt;/font&gt;" style="text;html=1;align=center;verticalAlign=middle;resizable=0;points=[];autosize=1;strokeColor=none;fillColor=none;fontColor=#EEEEEE;" vertex="1" parent="1">
          <mxGeometry x="440" y="58" width="40" height="30" as="geometry" />
        </mxCell>
        <mxCell id="jmd1gwVimG5P06i2sZjl-51" value="&lt;font color=&quot;#fa0000&quot;&gt;n&lt;/font&gt;" style="text;html=1;align=center;verticalAlign=middle;resizable=0;points=[];autosize=1;strokeColor=none;fillColor=none;fontColor=#EEEEEE;" vertex="1" parent="1">
          <mxGeometry x="585" y="118" width="30" height="30" as="geometry" />
        </mxCell>
        <mxCell id="jmd1gwVimG5P06i2sZjl-52" value="ISBN" style="rounded=0;whiteSpace=wrap;html=1;strokeColor=#BAC8D3;fontColor=#EEEEEE;fillColor=#09555B;" vertex="1" parent="1">
          <mxGeometry x="140" y="-200" width="80" height="40" as="geometry" />
        </mxCell>
        <mxCell id="jmd1gwVimG5P06i2sZjl-53" value="ID" style="ellipse;whiteSpace=wrap;html=1;strokeColor=#BAC8D3;fontColor=#EEEEEE;fillColor=#09555B;" vertex="1" parent="1">
          <mxGeometry x="254" y="-220" width="65" height="40" as="geometry" />
        </mxCell>
        <mxCell id="jmd1gwVimG5P06i2sZjl-54" value="QR KÓD" style="ellipse;whiteSpace=wrap;html=1;strokeColor=#BAC8D3;fontColor=#EEEEEE;fillColor=#09555B;" vertex="1" parent="1">
          <mxGeometry x="47" y="-240" width="63" height="50" as="geometry" />
        </mxCell>
        <mxCell id="jmd1gwVimG5P06i2sZjl-55" value="" style="endArrow=none;html=1;rounded=0;strokeColor=#0B4D6A;exitX=0;exitY=0.5;exitDx=0;exitDy=0;" edge="1" parent="1" source="jmd1gwVimG5P06i2sZjl-52">
          <mxGeometry width="50" height="50" relative="1" as="geometry">
            <mxPoint x="40" y="-150" as="sourcePoint" />
            <mxPoint x="90" y="-200" as="targetPoint" />
          </mxGeometry>
        </mxCell>
        <mxCell id="jmd1gwVimG5P06i2sZjl-56" value="" style="endArrow=none;html=1;rounded=0;strokeColor=#0B4D6A;exitX=1;exitY=0.5;exitDx=0;exitDy=0;" edge="1" parent="1" source="jmd1gwVimG5P06i2sZjl-52">
          <mxGeometry width="50" height="50" relative="1" as="geometry">
            <mxPoint x="210" y="-140" as="sourcePoint" />
            <mxPoint x="260" y="-190" as="targetPoint" />
          </mxGeometry>
        </mxCell>
        <mxCell id="jmd1gwVimG5P06i2sZjl-58" value="Azónósítója" style="rhombus;whiteSpace=wrap;html=1;strokeColor=#BAC8D3;fontColor=#EEEEEE;fillColor=#09555B;" vertex="1" parent="1">
          <mxGeometry x="120" y="-130" width="120" height="70" as="geometry" />
        </mxCell>
        <mxCell id="jmd1gwVimG5P06i2sZjl-59" value="" style="endArrow=none;html=1;rounded=0;strokeColor=#0B4D6A;exitX=0.5;exitY=0;exitDx=0;exitDy=0;" edge="1" parent="1" source="jmd1gwVimG5P06i2sZjl-25">
          <mxGeometry width="50" height="50" relative="1" as="geometry">
            <mxPoint x="130" y="-10" as="sourcePoint" />
            <mxPoint x="180" y="-60" as="targetPoint" />
          </mxGeometry>
        </mxCell>
        <mxCell id="jmd1gwVimG5P06i2sZjl-60" value="" style="endArrow=none;html=1;rounded=0;strokeColor=#0B4D6A;exitX=0.5;exitY=0;exitDx=0;exitDy=0;" edge="1" parent="1" source="jmd1gwVimG5P06i2sZjl-58">
          <mxGeometry width="50" height="50" relative="1" as="geometry">
            <mxPoint x="130" y="-110" as="sourcePoint" />
            <mxPoint x="180" y="-160" as="targetPoint" />
          </mxGeometry>
        </mxCell>
        <mxCell id="jmd1gwVimG5P06i2sZjl-61" value="&lt;font color=&quot;#ee0202&quot;&gt;1&lt;/font&gt;" style="text;html=1;align=center;verticalAlign=middle;resizable=0;points=[];autosize=1;strokeColor=none;fillColor=none;fontColor=#EEEEEE;" vertex="1" parent="1">
          <mxGeometry x="195" y="-52" width="30" height="30" as="geometry" />
        </mxCell>
        <mxCell id="jmd1gwVimG5P06i2sZjl-62" value="11&lt;font color=&quot;#ee0030&quot;&gt;1&lt;/font&gt;" style="text;html=1;align=center;verticalAlign=middle;resizable=0;points=[];autosize=1;strokeColor=none;fillColor=none;fontColor=#EEEEEE;" vertex="1" parent="1">
          <mxGeometry x="185" y="-160" width="40" height="30" as="geometry" />
        </mxCell>
        <mxCell id="jmd1gwVimG5P06i2sZjl-63" value="Kiadás" style="rounded=0;whiteSpace=wrap;html=1;strokeColor=#BAC8D3;fontColor=#EEEEEE;fillColor=#09555B;" vertex="1" parent="1">
          <mxGeometry x="-110" y="-140" width="80" height="40" as="geometry" />
        </mxCell>
        <mxCell id="jmd1gwVimG5P06i2sZjl-65" value="ID" style="ellipse;whiteSpace=wrap;html=1;strokeColor=#BAC8D3;fontColor=#EEEEEE;fillColor=#09555B;" vertex="1" parent="1">
          <mxGeometry x="-70" y="-190" width="65" height="30" as="geometry" />
        </mxCell>
        <mxCell id="jmd1gwVimG5P06i2sZjl-66" value="Ideje" style="rhombus;whiteSpace=wrap;html=1;strokeColor=#BAC8D3;fontColor=#EEEEEE;fillColor=#09555B;" vertex="1" parent="1">
          <mxGeometry x="-40" y="-90" width="80" height="63" as="geometry" />
        </mxCell>
        <mxCell id="jmd1gwVimG5P06i2sZjl-67" value="" style="endArrow=none;html=1;rounded=0;strokeColor=#0B4D6A;exitX=0;exitY=0.5;exitDx=0;exitDy=0;" edge="1" parent="1" source="jmd1gwVimG5P06i2sZjl-66">
          <mxGeometry width="50" height="50" relative="1" as="geometry">
            <mxPoint x="-120" y="-50" as="sourcePoint" />
            <mxPoint x="-70" y="-100" as="targetPoint" />
          </mxGeometry>
        </mxCell>
        <mxCell id="jmd1gwVimG5P06i2sZjl-68" value="" style="endArrow=none;html=1;rounded=0;strokeColor=#0B4D6A;entryX=1;entryY=1;entryDx=0;entryDy=0;exitX=0;exitY=0;exitDx=0;exitDy=0;" edge="1" parent="1" source="jmd1gwVimG5P06i2sZjl-25" target="jmd1gwVimG5P06i2sZjl-66">
          <mxGeometry width="50" height="50" relative="1" as="geometry">
            <mxPoint x="20" y="20" as="sourcePoint" />
            <mxPoint x="70" y="-30" as="targetPoint" />
          </mxGeometry>
        </mxCell>
        <mxCell id="jmd1gwVimG5P06i2sZjl-69" value="" style="endArrow=none;html=1;rounded=0;strokeColor=#0B4D6A;entryX=0.5;entryY=1;entryDx=0;entryDy=0;" edge="1" parent="1" target="jmd1gwVimG5P06i2sZjl-65">
          <mxGeometry width="50" height="50" relative="1" as="geometry">
            <mxPoint x="-70" y="-130" as="sourcePoint" />
            <mxPoint x="-50" y="-160" as="targetPoint" />
          </mxGeometry>
        </mxCell>
        <mxCell id="jmd1gwVimG5P06i2sZjl-76" value="" style="group" vertex="1" connectable="0" parent="1">
          <mxGeometry x="-460" y="420" width="120" height="220" as="geometry" />
        </mxCell>
        <mxCell id="jmd1gwVimG5P06i2sZjl-73" value="könyv" style="rounded=0;whiteSpace=wrap;html=1;strokeColor=#BAC8D3;fontColor=#EEEEEE;fillColor=#09555B;" vertex="1" parent="jmd1gwVimG5P06i2sZjl-76">
          <mxGeometry width="120" height="40" as="geometry" />
        </mxCell>
        <mxCell id="jmd1gwVimG5P06i2sZjl-74" value="&lt;ul&gt;&lt;li&gt;Író&lt;/li&gt;&lt;li&gt;kötés&lt;/li&gt;&lt;li&gt;Cím&lt;/li&gt;&lt;li&gt;Kiadó&lt;/li&gt;&lt;li&gt;Kiadas&lt;/li&gt;&lt;li&gt;ISBN&lt;/li&gt;&lt;/ul&gt;" style="rounded=0;whiteSpace=wrap;html=1;strokeColor=#BAC8D3;fontColor=#EEEEEE;fillColor=#09555B;" vertex="1" parent="jmd1gwVimG5P06i2sZjl-76">
          <mxGeometry y="40" width="120" height="150" as="geometry" />
        </mxCell>
        <mxCell id="jmd1gwVimG5P06i2sZjl-75" value="PK:ID" style="rounded=0;whiteSpace=wrap;html=1;strokeColor=#BAC8D3;fontColor=#EEEEEE;fillColor=#09555B;" vertex="1" parent="jmd1gwVimG5P06i2sZjl-76">
          <mxGeometry y="190" width="120" height="30" as="geometry" />
        </mxCell>
        <mxCell id="jmd1gwVimG5P06i2sZjl-77" value="" style="group" vertex="1" connectable="0" parent="1">
          <mxGeometry x="-200" y="420" width="120" height="220" as="geometry" />
        </mxCell>
        <mxCell id="jmd1gwVimG5P06i2sZjl-78" value="Író" style="rounded=0;whiteSpace=wrap;html=1;strokeColor=#BAC8D3;fontColor=#EEEEEE;fillColor=#09555B;" vertex="1" parent="jmd1gwVimG5P06i2sZjl-77">
          <mxGeometry width="120" height="40" as="geometry" />
        </mxCell>
        <mxCell id="jmd1gwVimG5P06i2sZjl-79" value="&lt;ul&gt;&lt;li&gt;neve&amp;nbsp;&lt;/li&gt;&lt;li&gt;Magassag&lt;/li&gt;&lt;li&gt;haj&lt;/li&gt;&lt;li&gt;&lt;br&gt;&lt;/li&gt;&lt;/ul&gt;" style="rounded=0;whiteSpace=wrap;html=1;strokeColor=#BAC8D3;fontColor=#EEEEEE;fillColor=#09555B;" vertex="1" parent="jmd1gwVimG5P06i2sZjl-77">
          <mxGeometry y="40" width="120" height="150" as="geometry" />
        </mxCell>
        <mxCell id="jmd1gwVimG5P06i2sZjl-80" value="PK:ID" style="rounded=0;whiteSpace=wrap;html=1;strokeColor=#BAC8D3;fontColor=#EEEEEE;fillColor=#09555B;" vertex="1" parent="jmd1gwVimG5P06i2sZjl-77">
          <mxGeometry y="190" width="120" height="30" as="geometry" />
        </mxCell>
        <mxCell id="jmd1gwVimG5P06i2sZjl-81" value="" style="endArrow=none;html=1;rounded=0;strokeColor=#0B4D6A;" edge="1" parent="1">
          <mxGeometry width="50" height="50" relative="1" as="geometry">
            <mxPoint x="-260" y="620" as="sourcePoint" />
            <mxPoint x="-200" y="620" as="targetPoint" />
          </mxGeometry>
        </mxCell>
        <mxCell id="jmd1gwVimG5P06i2sZjl-82" value="" style="endArrow=none;html=1;rounded=0;strokeColor=#0B4D6A;" edge="1" parent="1">
          <mxGeometry width="50" height="50" relative="1" as="geometry">
            <mxPoint x="-340" y="500" as="sourcePoint" />
            <mxPoint x="-260" y="500" as="targetPoint" />
          </mxGeometry>
        </mxCell>
        <mxCell id="jmd1gwVimG5P06i2sZjl-83" value="" style="endArrow=none;html=1;rounded=0;strokeColor=#0B4D6A;" edge="1" parent="1">
          <mxGeometry width="50" height="50" relative="1" as="geometry">
            <mxPoint x="-260" y="500" as="sourcePoint" />
            <mxPoint x="-260" y="620" as="targetPoint" />
          </mxGeometry>
        </mxCell>
        <mxCell id="jmd1gwVimG5P06i2sZjl-84" value="" style="group" vertex="1" connectable="0" parent="1">
          <mxGeometry x="-20" y="420" width="120" height="220" as="geometry" />
        </mxCell>
        <mxCell id="jmd1gwVimG5P06i2sZjl-85" value="könyv" style="rounded=0;whiteSpace=wrap;html=1;strokeColor=#BAC8D3;fontColor=#EEEEEE;fillColor=#09555B;" vertex="1" parent="jmd1gwVimG5P06i2sZjl-84">
          <mxGeometry width="120" height="40" as="geometry" />
        </mxCell>
        <mxCell id="jmd1gwVimG5P06i2sZjl-86" value="&lt;ul&gt;&lt;li&gt;Író&lt;/li&gt;&lt;li&gt;kötés&lt;/li&gt;&lt;li&gt;Cím&lt;/li&gt;&lt;li&gt;Kiadó&lt;/li&gt;&lt;li&gt;Kiadas&lt;/li&gt;&lt;li&gt;ISBN&lt;/li&gt;&lt;/ul&gt;" style="rounded=0;whiteSpace=wrap;html=1;strokeColor=#BAC8D3;fontColor=#EEEEEE;fillColor=#09555B;" vertex="1" parent="jmd1gwVimG5P06i2sZjl-84">
          <mxGeometry y="40" width="120" height="150" as="geometry" />
        </mxCell>
        <mxCell id="jmd1gwVimG5P06i2sZjl-87" value="PK:ID" style="rounded=0;whiteSpace=wrap;html=1;strokeColor=#BAC8D3;fontColor=#EEEEEE;fillColor=#09555B;" vertex="1" parent="jmd1gwVimG5P06i2sZjl-84">
          <mxGeometry y="190" width="120" height="30" as="geometry" />
        </mxCell>
        <mxCell id="jmd1gwVimG5P06i2sZjl-88" value="" style="group" vertex="1" connectable="0" parent="1">
          <mxGeometry x="240" y="420" width="120" height="220" as="geometry" />
        </mxCell>
        <mxCell id="jmd1gwVimG5P06i2sZjl-89" value="Kötés" style="rounded=0;whiteSpace=wrap;html=1;strokeColor=#BAC8D3;fontColor=#EEEEEE;fillColor=#09555B;" vertex="1" parent="jmd1gwVimG5P06i2sZjl-88">
          <mxGeometry width="120" height="40" as="geometry" />
        </mxCell>
        <mxCell id="jmd1gwVimG5P06i2sZjl-90" value="&lt;ul&gt;&lt;li&gt;fajta&lt;/li&gt;&lt;li&gt;szín&lt;/li&gt;&lt;li&gt;meret&lt;/li&gt;&lt;/ul&gt;" style="rounded=0;whiteSpace=wrap;html=1;strokeColor=#BAC8D3;fontColor=#EEEEEE;fillColor=#09555B;" vertex="1" parent="jmd1gwVimG5P06i2sZjl-88">
          <mxGeometry y="40" width="120" height="150" as="geometry" />
        </mxCell>
        <mxCell id="jmd1gwVimG5P06i2sZjl-91" value="PK:ID" style="rounded=0;whiteSpace=wrap;html=1;strokeColor=#BAC8D3;fontColor=#EEEEEE;fillColor=#09555B;" vertex="1" parent="jmd1gwVimG5P06i2sZjl-88">
          <mxGeometry y="190" width="120" height="30" as="geometry" />
        </mxCell>
        <mxCell id="jmd1gwVimG5P06i2sZjl-92" value="" style="endArrow=none;html=1;rounded=0;strokeColor=#0B4D6A;" edge="1" parent="1">
          <mxGeometry width="50" height="50" relative="1" as="geometry">
            <mxPoint x="180" y="620" as="sourcePoint" />
            <mxPoint x="240" y="620" as="targetPoint" />
          </mxGeometry>
        </mxCell>
        <mxCell id="jmd1gwVimG5P06i2sZjl-93" value="" style="endArrow=none;html=1;rounded=0;strokeColor=#0B4D6A;" edge="1" parent="1">
          <mxGeometry width="50" height="50" relative="1" as="geometry">
            <mxPoint x="100" y="510" as="sourcePoint" />
            <mxPoint x="180" y="510" as="targetPoint" />
          </mxGeometry>
        </mxCell>
        <mxCell id="jmd1gwVimG5P06i2sZjl-94" value="" style="endArrow=none;html=1;rounded=0;strokeColor=#0B4D6A;" edge="1" parent="1">
          <mxGeometry width="50" height="50" relative="1" as="geometry">
            <mxPoint x="180" y="510" as="sourcePoint" />
            <mxPoint x="180" y="620" as="targetPoint" />
          </mxGeometry>
        </mxCell>
        <mxCell id="jmd1gwVimG5P06i2sZjl-95" value="" style="group" vertex="1" connectable="0" parent="1">
          <mxGeometry x="400" y="420" width="120" height="220" as="geometry" />
        </mxCell>
        <mxCell id="jmd1gwVimG5P06i2sZjl-96" value="könyv" style="rounded=0;whiteSpace=wrap;html=1;strokeColor=#BAC8D3;fontColor=#EEEEEE;fillColor=#09555B;" vertex="1" parent="jmd1gwVimG5P06i2sZjl-95">
          <mxGeometry width="120" height="40" as="geometry" />
        </mxCell>
        <mxCell id="jmd1gwVimG5P06i2sZjl-97" value="&lt;ul&gt;&lt;li&gt;Író&lt;/li&gt;&lt;li&gt;kötés&lt;/li&gt;&lt;li&gt;Cím&lt;/li&gt;&lt;li&gt;Kiadó&lt;/li&gt;&lt;li&gt;Kiadas&lt;/li&gt;&lt;li&gt;ISBN&lt;/li&gt;&lt;/ul&gt;" style="rounded=0;whiteSpace=wrap;html=1;strokeColor=#BAC8D3;fontColor=#EEEEEE;fillColor=#09555B;" vertex="1" parent="jmd1gwVimG5P06i2sZjl-95">
          <mxGeometry y="40" width="120" height="150" as="geometry" />
        </mxCell>
        <mxCell id="jmd1gwVimG5P06i2sZjl-98" value="PK:ID" style="rounded=0;whiteSpace=wrap;html=1;strokeColor=#BAC8D3;fontColor=#EEEEEE;fillColor=#09555B;" vertex="1" parent="jmd1gwVimG5P06i2sZjl-95">
          <mxGeometry y="190" width="120" height="30" as="geometry" />
        </mxCell>
        <mxCell id="jmd1gwVimG5P06i2sZjl-99" value="" style="group" vertex="1" connectable="0" parent="1">
          <mxGeometry x="660" y="420" width="120" height="220" as="geometry" />
        </mxCell>
        <mxCell id="jmd1gwVimG5P06i2sZjl-100" value="Cím" style="rounded=0;whiteSpace=wrap;html=1;strokeColor=#BAC8D3;fontColor=#EEEEEE;fillColor=#09555B;" vertex="1" parent="jmd1gwVimG5P06i2sZjl-99">
          <mxGeometry width="120" height="40" as="geometry" />
        </mxCell>
        <mxCell id="jmd1gwVimG5P06i2sZjl-101" value="&lt;ul&gt;&lt;li&gt;Betűméret&lt;/li&gt;&lt;li&gt;Stílus&lt;/li&gt;&lt;li&gt;Jelentés&lt;/li&gt;&lt;/ul&gt;" style="rounded=0;whiteSpace=wrap;html=1;strokeColor=#BAC8D3;fontColor=#EEEEEE;fillColor=#09555B;" vertex="1" parent="jmd1gwVimG5P06i2sZjl-99">
          <mxGeometry y="40" width="120" height="150" as="geometry" />
        </mxCell>
        <mxCell id="jmd1gwVimG5P06i2sZjl-102" value="PK:ID" style="rounded=0;whiteSpace=wrap;html=1;strokeColor=#BAC8D3;fontColor=#EEEEEE;fillColor=#09555B;" vertex="1" parent="jmd1gwVimG5P06i2sZjl-99">
          <mxGeometry y="190" width="120" height="30" as="geometry" />
        </mxCell>
        <mxCell id="jmd1gwVimG5P06i2sZjl-103" value="" style="endArrow=none;html=1;rounded=0;strokeColor=#0B4D6A;" edge="1" parent="1">
          <mxGeometry width="50" height="50" relative="1" as="geometry">
            <mxPoint x="600" y="620" as="sourcePoint" />
            <mxPoint x="660" y="620" as="targetPoint" />
          </mxGeometry>
        </mxCell>
        <mxCell id="jmd1gwVimG5P06i2sZjl-104" value="" style="endArrow=none;html=1;rounded=0;strokeColor=#0B4D6A;" edge="1" parent="1">
          <mxGeometry width="50" height="50" relative="1" as="geometry">
            <mxPoint x="520" y="529.47" as="sourcePoint" />
            <mxPoint x="600" y="529.47" as="targetPoint" />
          </mxGeometry>
        </mxCell>
        <mxCell id="jmd1gwVimG5P06i2sZjl-105" value="" style="endArrow=none;html=1;rounded=0;strokeColor=#0B4D6A;" edge="1" parent="1">
          <mxGeometry width="50" height="50" relative="1" as="geometry">
            <mxPoint x="600" y="530" as="sourcePoint" />
            <mxPoint x="600" y="620" as="targetPoint" />
          </mxGeometry>
        </mxCell>
        <mxCell id="jmd1gwVimG5P06i2sZjl-110" value="" style="group" vertex="1" connectable="0" parent="1">
          <mxGeometry x="-460" y="670" width="120" height="220" as="geometry" />
        </mxCell>
        <mxCell id="jmd1gwVimG5P06i2sZjl-111" value="könyv" style="rounded=0;whiteSpace=wrap;html=1;strokeColor=#BAC8D3;fontColor=#EEEEEE;fillColor=#09555B;" vertex="1" parent="jmd1gwVimG5P06i2sZjl-110">
          <mxGeometry width="120" height="40" as="geometry" />
        </mxCell>
        <mxCell id="jmd1gwVimG5P06i2sZjl-112" value="&lt;ul&gt;&lt;li&gt;Író&lt;/li&gt;&lt;li&gt;kötés&lt;/li&gt;&lt;li&gt;Cím&lt;/li&gt;&lt;li&gt;Kiadó&lt;/li&gt;&lt;li&gt;Kiadas&lt;/li&gt;&lt;li&gt;ISBN&lt;/li&gt;&lt;/ul&gt;" style="rounded=0;whiteSpace=wrap;html=1;strokeColor=#BAC8D3;fontColor=#EEEEEE;fillColor=#09555B;" vertex="1" parent="jmd1gwVimG5P06i2sZjl-110">
          <mxGeometry y="40" width="120" height="150" as="geometry" />
        </mxCell>
        <mxCell id="jmd1gwVimG5P06i2sZjl-113" value="PK:ID" style="rounded=0;whiteSpace=wrap;html=1;strokeColor=#BAC8D3;fontColor=#EEEEEE;fillColor=#09555B;" vertex="1" parent="jmd1gwVimG5P06i2sZjl-110">
          <mxGeometry y="190" width="120" height="30" as="geometry" />
        </mxCell>
        <mxCell id="jmd1gwVimG5P06i2sZjl-114" value="" style="group" vertex="1" connectable="0" parent="1">
          <mxGeometry x="-200" y="670" width="120" height="220" as="geometry" />
        </mxCell>
        <mxCell id="jmd1gwVimG5P06i2sZjl-115" value="Kiadó" style="rounded=0;whiteSpace=wrap;html=1;strokeColor=#BAC8D3;fontColor=#EEEEEE;fillColor=#09555B;" vertex="1" parent="jmd1gwVimG5P06i2sZjl-114">
          <mxGeometry width="120" height="40" as="geometry" />
        </mxCell>
        <mxCell id="jmd1gwVimG5P06i2sZjl-116" value="&lt;ul&gt;&lt;li&gt;Neve&lt;/li&gt;&lt;li&gt;Irodaja&lt;/li&gt;&lt;li&gt;Hírneve&lt;/li&gt;&lt;/ul&gt;" style="rounded=0;whiteSpace=wrap;html=1;strokeColor=#BAC8D3;fontColor=#EEEEEE;fillColor=#09555B;" vertex="1" parent="jmd1gwVimG5P06i2sZjl-114">
          <mxGeometry y="40" width="120" height="150" as="geometry" />
        </mxCell>
        <mxCell id="jmd1gwVimG5P06i2sZjl-117" value="PK:ID" style="rounded=0;whiteSpace=wrap;html=1;strokeColor=#BAC8D3;fontColor=#EEEEEE;fillColor=#09555B;" vertex="1" parent="jmd1gwVimG5P06i2sZjl-114">
          <mxGeometry y="190" width="120" height="30" as="geometry" />
        </mxCell>
        <mxCell id="jmd1gwVimG5P06i2sZjl-118" value="" style="endArrow=none;html=1;rounded=0;strokeColor=#0B4D6A;" edge="1" parent="1">
          <mxGeometry width="50" height="50" relative="1" as="geometry">
            <mxPoint x="-260" y="870" as="sourcePoint" />
            <mxPoint x="-200" y="870" as="targetPoint" />
          </mxGeometry>
        </mxCell>
        <mxCell id="jmd1gwVimG5P06i2sZjl-119" value="" style="endArrow=none;html=1;rounded=0;strokeColor=#0B4D6A;" edge="1" parent="1">
          <mxGeometry width="50" height="50" relative="1" as="geometry">
            <mxPoint x="-340" y="790" as="sourcePoint" />
            <mxPoint x="-260" y="790" as="targetPoint" />
          </mxGeometry>
        </mxCell>
        <mxCell id="jmd1gwVimG5P06i2sZjl-120" value="" style="endArrow=none;html=1;rounded=0;strokeColor=#0B4D6A;" edge="1" parent="1">
          <mxGeometry width="50" height="50" relative="1" as="geometry">
            <mxPoint x="-260" y="770" as="sourcePoint" />
            <mxPoint x="-260" y="870" as="targetPoint" />
          </mxGeometry>
        </mxCell>
        <mxCell id="jmd1gwVimG5P06i2sZjl-121" value="Text" style="edgeLabel;html=1;align=center;verticalAlign=middle;resizable=0;points=[];fontColor=#EEEEEE;" vertex="1" connectable="0" parent="jmd1gwVimG5P06i2sZjl-120">
          <mxGeometry x="-0.8149" y="-2" relative="1" as="geometry">
            <mxPoint as="offset" />
          </mxGeometry>
        </mxCell>
        <mxCell id="jmd1gwVimG5P06i2sZjl-122" value="" style="group" vertex="1" connectable="0" parent="1">
          <mxGeometry x="400" y="670" width="120" height="220" as="geometry" />
        </mxCell>
        <mxCell id="jmd1gwVimG5P06i2sZjl-123" value="könyv" style="rounded=0;whiteSpace=wrap;html=1;strokeColor=#BAC8D3;fontColor=#EEEEEE;fillColor=#09555B;" vertex="1" parent="jmd1gwVimG5P06i2sZjl-122">
          <mxGeometry width="120" height="40" as="geometry" />
        </mxCell>
        <mxCell id="jmd1gwVimG5P06i2sZjl-124" value="&lt;ul&gt;&lt;li&gt;Író&lt;/li&gt;&lt;li&gt;kötés&lt;/li&gt;&lt;li&gt;Cím&lt;/li&gt;&lt;li&gt;Kiadó&lt;/li&gt;&lt;li&gt;Kiadas&lt;/li&gt;&lt;li&gt;ISBN&lt;/li&gt;&lt;/ul&gt;" style="rounded=0;whiteSpace=wrap;html=1;strokeColor=#BAC8D3;fontColor=#EEEEEE;fillColor=#09555B;" vertex="1" parent="jmd1gwVimG5P06i2sZjl-122">
          <mxGeometry y="40" width="120" height="150" as="geometry" />
        </mxCell>
        <mxCell id="jmd1gwVimG5P06i2sZjl-125" value="PK:ID" style="rounded=0;whiteSpace=wrap;html=1;strokeColor=#BAC8D3;fontColor=#EEEEEE;fillColor=#09555B;" vertex="1" parent="jmd1gwVimG5P06i2sZjl-122">
          <mxGeometry y="190" width="120" height="30" as="geometry" />
        </mxCell>
        <mxCell id="jmd1gwVimG5P06i2sZjl-126" value="" style="group" vertex="1" connectable="0" parent="1">
          <mxGeometry x="660" y="670" width="120" height="220" as="geometry" />
        </mxCell>
        <mxCell id="jmd1gwVimG5P06i2sZjl-127" value="ISBN" style="rounded=0;whiteSpace=wrap;html=1;strokeColor=#BAC8D3;fontColor=#EEEEEE;fillColor=#09555B;" vertex="1" parent="jmd1gwVimG5P06i2sZjl-126">
          <mxGeometry width="120" height="40" as="geometry" />
        </mxCell>
        <mxCell id="jmd1gwVimG5P06i2sZjl-128" value="&lt;ul&gt;&lt;li&gt;QR Kód&lt;/li&gt;&lt;/ul&gt;" style="rounded=0;whiteSpace=wrap;html=1;strokeColor=#BAC8D3;fontColor=#EEEEEE;fillColor=#09555B;" vertex="1" parent="jmd1gwVimG5P06i2sZjl-126">
          <mxGeometry y="40" width="120" height="150" as="geometry" />
        </mxCell>
        <mxCell id="jmd1gwVimG5P06i2sZjl-129" value="PK:ID" style="rounded=0;whiteSpace=wrap;html=1;strokeColor=#BAC8D3;fontColor=#EEEEEE;fillColor=#09555B;" vertex="1" parent="jmd1gwVimG5P06i2sZjl-126">
          <mxGeometry y="190" width="120" height="30" as="geometry" />
        </mxCell>
        <mxCell id="jmd1gwVimG5P06i2sZjl-130" value="" style="endArrow=none;html=1;rounded=0;strokeColor=#0B4D6A;" edge="1" parent="1">
          <mxGeometry width="50" height="50" relative="1" as="geometry">
            <mxPoint x="600" y="870" as="sourcePoint" />
            <mxPoint x="660" y="870" as="targetPoint" />
          </mxGeometry>
        </mxCell>
        <mxCell id="jmd1gwVimG5P06i2sZjl-131" value="" style="endArrow=none;html=1;rounded=0;strokeColor=#0B4D6A;" edge="1" parent="1">
          <mxGeometry width="50" height="50" relative="1" as="geometry">
            <mxPoint x="520" y="820" as="sourcePoint" />
            <mxPoint x="600" y="820" as="targetPoint" />
          </mxGeometry>
        </mxCell>
        <mxCell id="jmd1gwVimG5P06i2sZjl-134" value="" style="endArrow=none;html=1;rounded=0;strokeColor=#0B4D6A;" edge="1" parent="1">
          <mxGeometry width="50" height="50" relative="1" as="geometry">
            <mxPoint x="600" y="820" as="sourcePoint" />
            <mxPoint x="600" y="870" as="targetPoint" />
          </mxGeometry>
        </mxCell>
        <mxCell id="jmd1gwVimG5P06i2sZjl-136" value="&lt;font color=&quot;#ee0a0a&quot;&gt;1&lt;/font&gt;" style="text;html=1;align=center;verticalAlign=middle;resizable=0;points=[];autosize=1;strokeColor=none;fillColor=none;fontColor=#EEEEEE;" vertex="1" parent="1">
          <mxGeometry x="75" y="-52" width="30" height="30" as="geometry" />
        </mxCell>
        <mxCell id="jmd1gwVimG5P06i2sZjl-137" value="11&lt;font color=&quot;#ee0000&quot;&gt;1&lt;/font&gt;" style="text;html=1;align=center;verticalAlign=middle;resizable=0;points=[];autosize=1;strokeColor=none;fillColor=none;fontColor=#EEEEEE;" vertex="1" parent="1">
          <mxGeometry x="-50" y="-102" width="40" height="30" as="geometry" />
        </mxCell>
        <mxCell id="jmd1gwVimG5P06i2sZjl-138" value="" style="group" vertex="1" connectable="0" parent="1">
          <mxGeometry x="-40" y="670" width="120" height="220" as="geometry" />
        </mxCell>
        <mxCell id="jmd1gwVimG5P06i2sZjl-139" value="könyv" style="rounded=0;whiteSpace=wrap;html=1;strokeColor=#BAC8D3;fontColor=#EEEEEE;fillColor=#09555B;" vertex="1" parent="jmd1gwVimG5P06i2sZjl-138">
          <mxGeometry width="120" height="40" as="geometry" />
        </mxCell>
        <mxCell id="jmd1gwVimG5P06i2sZjl-140" value="&lt;ul&gt;&lt;li&gt;Író&lt;/li&gt;&lt;li&gt;kötés&lt;/li&gt;&lt;li&gt;Cím&lt;/li&gt;&lt;li&gt;Kiadó&lt;/li&gt;&lt;li&gt;Kiadas&lt;/li&gt;&lt;li&gt;ISBN&lt;/li&gt;&lt;/ul&gt;" style="rounded=0;whiteSpace=wrap;html=1;strokeColor=#BAC8D3;fontColor=#EEEEEE;fillColor=#09555B;" vertex="1" parent="jmd1gwVimG5P06i2sZjl-138">
          <mxGeometry y="40" width="120" height="150" as="geometry" />
        </mxCell>
        <mxCell id="jmd1gwVimG5P06i2sZjl-141" value="PK:ID" style="rounded=0;whiteSpace=wrap;html=1;strokeColor=#BAC8D3;fontColor=#EEEEEE;fillColor=#09555B;" vertex="1" parent="jmd1gwVimG5P06i2sZjl-138">
          <mxGeometry y="190" width="120" height="30" as="geometry" />
        </mxCell>
        <mxCell id="jmd1gwVimG5P06i2sZjl-142" value="" style="group" vertex="1" connectable="0" parent="1">
          <mxGeometry x="220" y="670" width="120" height="220" as="geometry" />
        </mxCell>
        <mxCell id="jmd1gwVimG5P06i2sZjl-143" value="Kiadás" style="rounded=0;whiteSpace=wrap;html=1;strokeColor=#BAC8D3;fontColor=#EEEEEE;fillColor=#09555B;" vertex="1" parent="jmd1gwVimG5P06i2sZjl-142">
          <mxGeometry width="120" height="40" as="geometry" />
        </mxCell>
        <mxCell id="jmd1gwVimG5P06i2sZjl-144" value="&lt;ul&gt;&lt;li&gt;IDeje&lt;/li&gt;&lt;/ul&gt;" style="rounded=0;whiteSpace=wrap;html=1;strokeColor=#BAC8D3;fontColor=#EEEEEE;fillColor=#09555B;" vertex="1" parent="jmd1gwVimG5P06i2sZjl-142">
          <mxGeometry y="40" width="120" height="150" as="geometry" />
        </mxCell>
        <mxCell id="jmd1gwVimG5P06i2sZjl-145" value="PK:ID" style="rounded=0;whiteSpace=wrap;html=1;strokeColor=#BAC8D3;fontColor=#EEEEEE;fillColor=#09555B;" vertex="1" parent="jmd1gwVimG5P06i2sZjl-142">
          <mxGeometry y="190" width="120" height="30" as="geometry" />
        </mxCell>
        <mxCell id="jmd1gwVimG5P06i2sZjl-146" value="" style="endArrow=none;html=1;rounded=0;strokeColor=#0B4D6A;" edge="1" parent="1">
          <mxGeometry width="50" height="50" relative="1" as="geometry">
            <mxPoint x="160" y="870" as="sourcePoint" />
            <mxPoint x="220" y="870" as="targetPoint" />
          </mxGeometry>
        </mxCell>
        <mxCell id="jmd1gwVimG5P06i2sZjl-147" value="" style="endArrow=none;html=1;rounded=0;strokeColor=#0B4D6A;" edge="1" parent="1">
          <mxGeometry width="50" height="50" relative="1" as="geometry">
            <mxPoint x="80" y="810" as="sourcePoint" />
            <mxPoint x="160" y="810" as="targetPoint" />
          </mxGeometry>
        </mxCell>
        <mxCell id="jmd1gwVimG5P06i2sZjl-150" value="" style="endArrow=none;html=1;rounded=0;strokeColor=#0B4D6A;" edge="1" parent="1">
          <mxGeometry width="50" height="50" relative="1" as="geometry">
            <mxPoint x="160" y="810" as="sourcePoint" />
            <mxPoint x="160" y="870" as="targetPoint" />
          </mxGeometry>
        </mxCell>
      </root>
    </mxGraphModel>
  </diagram>
</mxfile>
